<svg width="53" height="53" viewBox="0 0 53 53" fill="none" xmlns="http://www.w3.org/2000/svg">
<g clip-path="url(#clip0_16_267)">
<path d="M13.3825 24.6118C13.8326 21.4534 15.4071 18.5635 17.8168 16.4727C20.2265 14.382 23.3097 13.231 26.5 13.231C29.6903 13.231 32.7735 14.382 35.1832 16.4727C37.593 18.5635 39.1675 21.4534 39.6175 24.6118C39.6521 24.829 39.643 25.0509 39.5909 25.2645C39.5388 25.4782 39.4447 25.6793 39.314 25.8562C39.1833 26.0331 39.0188 26.1822 38.8298 26.2948C38.6409 26.4074 38.4315 26.4812 38.2138 26.512C37.996 26.5428 37.7743 26.5299 37.5616 26.4741C37.3489 26.4183 37.1494 26.3207 36.9748 26.187C36.8002 26.0533 36.654 25.8862 36.5447 25.6953C36.4354 25.5045 36.3652 25.2938 36.3381 25.0756C36.0006 22.7068 34.8197 20.5393 33.0124 18.9713C31.2051 17.4032 28.8927 16.5399 26.5 16.5399C24.1073 16.5399 21.7949 17.4032 19.9876 18.9713C18.1803 20.5393 16.9994 22.7068 16.6619 25.0756C16.6349 25.2938 16.5647 25.5045 16.4554 25.6953C16.346 25.8862 16.1998 26.0533 16.0252 26.187C15.8506 26.3207 15.6512 26.4183 15.4384 26.4741C15.2257 26.5299 15.004 26.5428 14.7863 26.512C14.5685 26.4812 14.3591 26.4074 14.1702 26.2948C13.9813 26.1822 13.8167 26.0331 13.686 25.8562C13.5554 25.6793 13.4612 25.4782 13.4091 25.2645C13.357 25.0509 13.348 24.829 13.3825 24.6118Z" fill="#85B254"/>
<path fill-rule="evenodd" clip-rule="evenodd" d="M13.25 31.4688C13.25 31.0295 13.4245 30.6082 13.7351 30.2976C14.0457 29.987 14.467 29.8125 14.9062 29.8125H38.0938C38.533 29.8125 38.9543 29.987 39.2649 30.2976C39.5755 30.6082 39.75 31.0295 39.75 31.4688V44.7188C39.75 45.158 39.5755 45.5793 39.2649 45.8899C38.9543 46.2005 38.533 46.375 38.0938 46.375H14.9062C14.467 46.375 14.0457 46.2005 13.7351 45.8899C13.4245 45.5793 13.25 45.158 13.25 44.7188V31.4688ZM16.5625 33.125V43.0625H36.4375V33.125H33.125V34.7812C33.125 35.2205 32.9505 35.6418 32.6399 35.9524C32.3293 36.263 31.908 36.4375 31.4688 36.4375C31.0295 36.4375 30.6082 36.263 30.2976 35.9524C29.987 35.6418 29.8125 35.2205 29.8125 34.7812V33.125H16.5625Z" fill="#85B254"/>
<path d="M19.875 7.75456V6.625C19.875 4.86794 20.573 3.18285 21.8154 1.94042C23.0578 0.697989 24.7429 0 26.5 0C28.2571 0 29.9422 0.697989 31.1846 1.94042C32.427 3.18285 33.125 4.86794 33.125 6.625V7.75456C40.8431 10.4841 46.375 17.8477 46.375 26.5V30.4452L50.2506 32.383C51.0767 32.7954 51.7714 33.4298 52.2571 34.215C52.7427 35.0002 53 35.9051 53 36.8284V44.7188C53 46.0365 52.4765 47.3004 51.5447 48.2322C50.6129 49.164 49.349 49.6875 48.0312 49.6875H44.7188C43.2082 51.6982 40.8034 53 38.0938 53H14.9062C13.6206 53 12.3527 52.7007 11.2028 52.1257C10.0529 51.5508 9.05262 50.716 8.28125 49.6875H4.96875C3.65096 49.6875 2.38713 49.164 1.45531 48.2322C0.523492 47.3004 0 46.0365 0 44.7188L0 36.8284C3.11872e-05 35.9051 0.25729 35.0002 0.742922 34.215C1.22855 33.4298 1.92335 32.7954 2.74937 32.383L6.625 30.4452V26.5C6.62353 22.3887 7.89704 18.3782 10.2701 15.021C12.6431 11.6637 15.9989 9.12498 19.875 7.75456ZM23.1875 6.625V6.89994C25.3803 6.52929 27.6197 6.52929 29.8125 6.89994V6.625C29.8125 5.74647 29.4635 4.90392 28.8423 4.28271C28.2211 3.66149 27.3785 3.3125 26.5 3.3125C25.6215 3.3125 24.7789 3.66149 24.1577 4.28271C23.5365 4.90392 23.1875 5.74647 23.1875 6.625ZM9.9375 44.7188C9.9375 46.0365 10.461 47.3004 11.3928 48.2322C12.3246 49.164 13.5885 49.6875 14.9062 49.6875H38.0938C39.4115 49.6875 40.6754 49.164 41.6072 48.2322C42.539 47.3004 43.0625 46.0365 43.0625 44.7188V26.5C43.0625 22.1074 41.3175 17.8946 38.2115 14.7885C35.1054 11.6825 30.8926 9.9375 26.5 9.9375C22.1074 9.9375 17.8946 11.6825 14.7885 14.7885C11.6825 17.8946 9.9375 22.1074 9.9375 26.5V44.7188ZM6.625 34.1519L4.22675 35.351C3.95199 35.4887 3.72095 35.7001 3.55949 35.9616C3.39803 36.2231 3.31251 36.5244 3.3125 36.8317V44.7188C3.3125 45.158 3.487 45.5793 3.7976 45.8899C4.10821 46.2005 4.52949 46.375 4.96875 46.375H6.625V34.1519ZM46.375 34.1519V46.375H48.0312C48.4705 46.375 48.8918 46.2005 49.2024 45.8899C49.513 45.5793 49.6875 45.158 49.6875 44.7188V36.8284C49.6875 36.521 49.602 36.2198 49.4405 35.9583C49.279 35.6968 49.048 35.4854 48.7733 35.3477L46.375 34.1486V34.1519Z" fill="#85B254"/>
</g>
<defs>
<clipPath id="clip0_16_267">
<rect width="53" height="53" fill="white"/>
</clipPath>
</defs>
</svg>
