<svg width="66" height="38" viewBox="0 0 66 38" fill="none" xmlns="http://www.w3.org/2000/svg">
<path d="M18.9091 36V33.1667C18.9091 29.4094 20.3937 25.8061 23.0362 23.1493C25.6788 20.4926 29.2629 19 33 19M33 19C36.7371 19 40.3212 20.4926 42.9638 23.1493C45.6063 25.8061 47.0909 29.4094 47.0909 33.1667V36M33 19C35.2423 19 37.3927 18.1045 38.9783 16.5104C40.5638 14.9163 41.4545 12.7543 41.4545 10.5C41.4545 8.24566 40.5638 6.08365 38.9783 4.48959C37.3927 2.89553 35.2423 2 33 2C30.7577 2 28.6073 2.89553 27.0217 4.48959C25.4362 6.08365 24.5455 8.24566 24.5455 10.5C24.5455 12.7543 25.4362 14.9163 27.0217 16.5104C28.6073 18.1045 30.7577 19 33 19ZM2 36V33.1667C2 30.9123 2.89074 28.7503 4.47628 27.1563C6.06181 25.5622 8.21226 24.6667 10.4545 24.6667M10.4545 24.6667C11.9494 24.6667 13.383 24.0696 14.4401 23.0069C15.4971 21.9442 16.0909 20.5029 16.0909 19C16.0909 17.4971 15.4971 16.0558 14.4401 14.9931C13.383 13.9304 11.9494 13.3333 10.4545 13.3333C8.95969 13.3333 7.52606 13.9304 6.46903 14.9931C5.41201 16.0558 4.81818 17.4971 4.81818 19C4.81818 20.5029 5.41201 21.9442 6.46903 23.0069C7.52606 24.0696 8.95969 24.6667 10.4545 24.6667ZM64 36V33.1667C64 30.9123 63.1093 28.7503 61.5237 27.1563C59.9382 25.5622 57.7877 24.6667 55.5455 24.6667M55.5455 24.6667C57.0403 24.6667 58.4739 24.0696 59.531 23.0069C60.588 21.9442 61.1818 20.5029 61.1818 19C61.1818 17.4971 60.588 16.0558 59.531 14.9931C58.4739 13.9304 57.0403 13.3333 55.5455 13.3333C54.0506 13.3333 52.617 13.9304 51.5599 14.9931C50.5029 16.0558 49.9091 17.4971 49.9091 19C49.9091 20.5029 50.5029 21.9442 51.5599 23.0069C52.617 24.0696 54.0506 24.6667 55.5455 24.6667Z" stroke="#85B254" stroke-width="4" stroke-linecap="round" stroke-linejoin="round"/>
</svg>
